<svg width="20" height="28" viewBox="0 0 20 28" fill="none" xmlns="http://www.w3.org/2000/svg">
<path d="M18.9842 0.751953C19.2742 0.751953 19.532 0.997387 19.532 1.2735V3.57444C19.532 3.85056 19.2742 4.09599 18.9842 4.09599H0.758824C0.468766 4.09599 0.210938 3.85056 0.210938 3.57444V1.2735C0.210938 0.997387 0.468766 0.751953 0.758824 0.751953H18.9842Z" fill="white"/>
<path d="M10.5768 8.05182C10.4967 7.88254 10.3684 7.74403 10.0799 7.74403H9.79134C9.53485 7.74403 9.39057 7.88254 9.29439 8.05182L0.26922 26.7809C0.0928843 27.1503 0.333343 27.5042 0.766166 27.5042H3.28296C3.74784 27.5042 4.00433 27.2272 4.11654 26.9502L9.80736 14.7309H9.88752L15.6264 26.9502C15.8348 27.335 16.0272 27.5042 16.46 27.5042H18.9768C19.4096 27.5042 19.6501 27.1349 19.4738 26.7809L10.5768 8.05182Z" fill="white"/>
</svg>
